<svg xmlns="http://www.w3.org/2000/svg" xmlns:xlink="http://www.w3.org/1999/xlink"
     width="860" height="202" viewBox="0 0 860 202">
  <rect width="860" height="202" rx="12" fill="#0d1117" stroke="#30363d" stroke-width="1"/>
  <!-- Title -->
  <text x="32" y="38" fill="#c9d1d9" font-family="monospace" font-size="15" font-weight="bold">💻 Programming Activity</text>

  <!-- Row 0: Python -->
  <image href="https://cdn.simpleicons.org/python?viewbox=auto&size=16" x="32" y="71" width="20" height="20"/>
  <text x="58" y="86" fill="#c9d1d9" font-family="monospace" font-size="13">Python</text>
  <text x="192" y="86" fill="#8b949e" font-family="monospace" font-size="12">5 hrs 54 mins</text>
  <rect x="352" y="74" width="476" height="14" rx="7" fill="#333"/>
  <rect x="352" y="74" width="364.1" height="14" rx="7" fill="#3572A5"/>
  <text x="836" y="86" text-anchor="start" fill="#8b949e" font-family="monospace" font-size="11" display="none">76.5%</text>
  <!-- Row 1: Go -->
  <image href="https://cdn.simpleicons.org/go?viewbox=auto&size=16" x="32" y="113" width="20" height="20"/>
  <text x="58" y="128" fill="#c9d1d9" font-family="monospace" font-size="13">Go</text>
  <text x="192" y="128" fill="#8b949e" font-family="monospace" font-size="12">3 hrs 5 mins</text>
  <rect x="352" y="116" width="476" height="14" rx="7" fill="#333"/>
  <rect x="352" y="116" width="264.2" height="14" rx="7" fill="#00ADD8"/>
  <text x="836" y="128" text-anchor="start" fill="#8b949e" font-family="monospace" font-size="11" display="none">55.5%</text>
  <!-- Row 2: JavaScript -->
  <image href="https://cdn.simpleicons.org/javascript?viewbox=auto&size=16" x="32" y="155" width="20" height="20"/>
  <text x="58" y="170" fill="#c9d1d9" font-family="monospace" font-size="13">JavaScript</text>
  <text x="192" y="170" fill="#8b949e" font-family="monospace" font-size="12">2 hrs 47 mins</text>
  <rect x="352" y="158" width="476" height="14" rx="7" fill="#333"/>
  <rect x="352" y="158" width="173.3" height="14" rx="7" fill="#F7DF1E"/>
  <text x="836" y="170" text-anchor="start" fill="#8b949e" font-family="monospace" font-size="11" display="none">36.4%</text>
</svg>